<svg xmlns="http://www.w3.org/2000/svg" height="512" width="512"><rect id="backgroundrect" width="100%" height="100%" x="0" y="0" fill="none" stroke="none"/><g class="currentLayer" style=""><title>Layer 1</title><path d="m305.4347826242447,256 c0,27.0625 -21.9375,49 -49,49 s-49,-21.9375 -49,-49 s21.9375,-49 49,-49 s49,21.9375 49,49 zm0,0 " id="svg_1" class="selected" fill-opacity="1" fill="#dc3545"/><path d="m370.59375 169.304688c-2.355469-6.382813-6.113281-12.160157-10.996094-16.902344-4.742187-4.882813-10.515625-8.640625-16.902344-10.996094-5.179687-2.011719-12.960937-4.40625-27.292968-5.058594-15.503906-.707031-20.152344-.859375-59.402344-.859375-39.253906 0-43.902344.148438-59.402344.855469-14.332031.65625-22.117187 3.050781-27.292968 5.0625-6.386719 2.355469-12.164063 6.113281-16.902344 10.996094-4.882813 4.742187-8.640625 10.515625-11 16.902344-2.011719 5.179687-4.40625 12.964843-5.058594 27.296874-.707031 15.5-.859375 20.148438-.859375 59.402344 0 39.25.152344 43.898438.859375 59.402344.652344 14.332031 3.046875 22.113281 5.058594 27.292969 2.359375 6.386719 6.113281 12.160156 10.996094 16.902343 4.742187 4.882813 10.515624 8.640626 16.902343 10.996094 5.179688 2.015625 12.964844 4.410156 27.296875 5.0625 15.5.707032 20.144532.855469 59.398438.855469 39.257812 0 43.90625-.148437 59.402344-.855469 14.332031-.652344 22.117187-3.046875 27.296874-5.0625 12.820313-4.945312 22.953126-15.078125 27.898438-27.898437 2.011719-5.179688 4.40625-12.960938 5.0625-27.292969.707031-15.503906.855469-20.152344.855469-59.402344 0-39.253906-.148438-43.902344-.855469-59.402344-.652344-14.332031-3.046875-22.117187-5.0625-27.296874zm-114.59375 162.179687c-41.691406 0-75.488281-33.792969-75.488281-75.484375s33.796875-75.484375 75.488281-75.484375c41.6875 0 75.484375 33.792969 75.484375 75.484375s-33.796875 75.484375-75.484375 75.484375zm78.46875-136.3125c-9.742188 0-17.640625-7.898437-17.640625-17.640625s7.898437-17.640625 17.640625-17.640625 17.640625 7.898437 17.640625 17.640625c-.003906 9.742188-7.898437 17.640625-17.640625 17.640625zm0 0" id="svg_2" class="" fill-opacity="1" fill="#dc3545"/><path d="m256.4347826242447,-0.43478262424468994 c-141.363281,0 -256,114.636719 -256,256 s114.636719,256 256,256 s256,-114.636719 256,-256 s-114.636719,-256 -256,-256 zm146.113281,316.605469 c-0.710937,15.648437 -3.1992190000000003,26.332031 -6.832031,35.683593 c-7.636719,19.746094 -23.246094,35.355469 -42.992188,42.992188 c-9.347656,3.632812 -20.035156,6.117188 -35.679687,6.832031 c-15.675781,0.7148440000000001 -20.683594,0.8867190000000001 -60.605469,0.8867190000000001 c-39.925781,0 -44.929687,-0.171875 -60.609375,-0.8867190000000001 c-15.644531,-0.7148430000000001 -26.332031,-3.1992190000000003 -35.679687,-6.832031 c-9.8125,-3.691406 -18.695313,-9.476562 -26.039063,-16.957031 c-7.476562,-7.339844 -13.261719,-16.226563 -16.953125,-26.035157 c-3.632812,-9.347656 -6.121094,-20.035156 -6.832031,-35.679687 c-0.7226560000000001,-15.679687 -0.8906250000000002,-20.6875 -0.8906250000000002,-60.609375 s0.16796900000000006,-44.929688 0.8867190000000001,-60.605469 c0.710937,-15.648437 3.195312,-26.332031 6.828125,-35.683593 c3.691406,-9.808594 9.480468,-18.695313 16.960937,-26.035157 c7.339844,-7.480469 16.226563,-13.265625 26.035157,-16.957031 c9.351562,-3.632812 20.035156,-6.117188 35.683593,-6.832031 c15.675781,-0.7148440000000001 20.683594,-0.8867190000000001 60.605469,-0.8867190000000001 s44.929688,0.171875 60.605469,0.8906250000000002 c15.648437,0.710937 26.332031,3.195313 35.683593,6.824219 c9.808594,3.691406 18.695313,9.480468 26.039063,16.960937 c7.476563,7.34375 13.265625,16.226563 16.953125,26.035157 c3.6367190000000003,9.351562 6.121094,20.035156 6.8359380000000005,35.683593 c0.7148430000000001,15.675781 0.882812,20.683594 0.882812,60.605469 s-0.16796900000000006,44.929688 -0.8867190000000001,60.605469 zm0,0 " id="svg_3" class="" fill-opacity="1" fill="#dc3545"/></g></svg>